<svg xmlns="http://www.w3.org/2000/svg" xmlns:xlink="http://www.w3.org/1999/xlink" viewBox="0 0 133.73 37.1"><defs><style>.cls-1{fill:none;}.cls-2{fill:#05db70;}.cls-3{fill:#fff;}.cls-4{clip-path:url(#clip-path);}.cls-5{fill:#06bf5e;}.cls-6{fill:#170e3f;}</style><clipPath id="clip-path" transform="translate(0 0)"><rect class="cls-1" width="37.1" height="37.1" rx="2.91" transform="translate(37.1 37.1) rotate(-180)"/></clipPath></defs><title>Asset 6</title><g id="Layer_2" data-name="Layer 2"><g id="Layer_1-2" data-name="Layer 1"><path class="cls-2" d="M49.33,21.8l-1.47,6.84H43L47.32,8.47h8a8.31,8.31,0,0,1,3.91.85,4.72,4.72,0,0,1,2.24,2.43,6,6,0,0,1,.21,3.56A7.53,7.53,0,0,1,58.61,20a10.4,10.4,0,0,1-6.18,1.77Zm.8-3.76h3.19a3.58,3.58,0,0,0,2.3-.7,3.3,3.3,0,0,0,1.17-2,2.83,2.83,0,0,0-.28-2.26,2.12,2.12,0,0,0-1.89-.85H51.38Z" transform="translate(0 0)"/><path class="cls-2" d="M79.25,21.81A9.21,9.21,0,0,1,73.86,28a11.27,11.27,0,0,1-4.48.89c-2.65,0-4.55-.87-5.7-2.59S62.29,22.16,63,19l.21-1a14.59,14.59,0,0,1,2.15-5.19A10.67,10.67,0,0,1,69,9.39a9.61,9.61,0,0,1,4.74-1.21q3.67,0,5.49,1.93a6.28,6.28,0,0,1,1.39,5.33H75.8a3.1,3.1,0,0,0-.36-2.65A3.18,3.18,0,0,0,73,12,3.64,3.64,0,0,0,70,13.35a10.37,10.37,0,0,0-1.82,4.33l-.31,1.43c-.46,2.15-.52,3.69-.17,4.61a2.32,2.32,0,0,0,2.49,1.39,4.47,4.47,0,0,0,2.73-.79,4.23,4.23,0,0,0,1.48-2.51Z" transform="translate(0 0)"/><path class="cls-3" d="M89.1,21.51H86.47l-1.53,7.13H80.08L84.4,8.47h7.94q3.59,0,5.27,1.59a4.51,4.51,0,0,1,1.06,4.5,7.93,7.93,0,0,1-1.6,3.49,8.19,8.19,0,0,1-3.15,2.24l2.47,8.14,0,.21h-5.2Zm-1.83-3.74h3.08A3.37,3.37,0,0,0,92.59,17a3.61,3.61,0,0,0,1.14-2,2.49,2.49,0,0,0-.27-2,2.24,2.24,0,0,0-1.92-.75H88.46Z" transform="translate(0 0)"/><path class="cls-3" d="M112.93,20.08h-7.64l-1,4.82h9l-.8,3.74H98.59l4.32-20.17h13.92l-.8,3.76H107l-.91,4.25h7.64Z" transform="translate(0 0)"/><path class="cls-3" d="M132.24,21.81A9.17,9.17,0,0,1,126.86,28a11.27,11.27,0,0,1-4.48.89c-2.65,0-4.55-.87-5.7-2.59s-1.4-4.17-.72-7.32l.21-1a14.59,14.59,0,0,1,2.15-5.19A10.73,10.73,0,0,1,122,9.39a9.67,9.67,0,0,1,4.75-1.21q3.67,0,5.49,1.93a6.28,6.28,0,0,1,1.39,5.33H128.8a3.1,3.1,0,0,0-.36-2.65A3.22,3.22,0,0,0,126,12a3.66,3.66,0,0,0-3,1.36,10.51,10.51,0,0,0-1.81,4.33l-.31,1.43a9.2,9.2,0,0,0-.18,4.61,2.35,2.35,0,0,0,2.5,1.39,4.47,4.47,0,0,0,2.73-.79,4.28,4.28,0,0,0,1.48-2.51Z" transform="translate(0 0)"/><rect class="cls-2" width="37.1" height="37.1" rx="2.91"/><g class="cls-4"><polyline class="cls-5" points="3.2 31.86 8.44 37.1 18.12 37.1 37.1 37.1 37.1 23.79 18.55 5.24"/></g><polygon class="cls-6" points="3.2 31.86 33.9 31.86 18.55 5.24 3.2 31.86"/></g></g></svg>