<svg id="Capa_1" data-name="Capa 1" xmlns="http://www.w3.org/2000/svg" viewBox="0 0 512 425.49"><defs><style>.cls-1{fill:#fff;}</style></defs><title>back</title><path class="cls-1" d="M142.72,293.15l-94-107.6,94-107.61a20.93,20.93,0,0,0-31.53-27.53L5.17,171.78a20.92,20.92,0,0,0,0,27.53l106,121.38a20.93,20.93,0,0,0,31.53-27.54Z" transform="translate(0 -43.26)"/><path class="cls-1" d="M359.93,164.62h-339a20.93,20.93,0,1,0,0,41.85h339a110.21,110.21,0,1,1,0,220.42H48.83a20.93,20.93,0,1,0,0,41.85h311.1c83.84,0,152.07-68.21,152.07-152.06S443.78,164.62,359.93,164.62Z" transform="translate(0 -43.26)"/></svg>