<svg height="512" viewBox="0 0 58 58" width="512" xmlns="http://www.w3.org/2000/svg"><g id="021---Computer-Question" fill="none"><path id="Rectangle-path" d="m15 42h18v13h-18z" fill="#3f5c6c"/><path id="Shape" d="m10 52h28c2.209139 0 4 1.790861 4 4v1c0 .5522847-.4477153 1-1 1h-34c-.55228475 0-1-.4477153-1-1v-1c0-2.209139 1.790861-4 4-4z" fill="#547580"/><path id="Shape" d="m48 35v8c-.0032948 1.1032019-.8967981 1.9967052-2 2h-44c-1.10320187-.0032948-1.9967052-.8967981-2-2v-8z" fill="#547580"/><circle id="Oval" cx="24" cy="41" fill="#3f5c6c" r="1"/><path id="Shape" d="m48 21v16h-48c0-22.543 16.49-25.34 30.14-28.18z" fill="#84b5cb"/><path id="Shape" d="m30.14 8.82c-13.65 2.84-30.14 10.01-30.14 28.18v-29c.0032948-1.10320187.89679813-1.9967052 2-2h24z" fill="#9fc9d3"/><path id="Shape" d="m37.53 21-7.69 5.89c-.1562874.1240368-.3699223.1472834-.5492301.0597641s-.292409-.2702442-.2907699-.4697641l-.0000176-5.48z" fill="#e57e25"/><rect id="Rectangle-path" fill="#f29c1f" height="21" rx="2.07" width="32" x="26"/><g fill="#fff"><path id="Shape" d="m41 13c-.5522847 0-1-.4477153-1-1v-2c0-.55228475.4477153-1 1-1 1.1045695 0 2-.8954305 2-2s-.8954305-2-2-2-2 .8954305-2 2c0 .55228475-.4477153 1-1 1-2.092 0-.814-5 3-5 2.0157976-.00199231 3.7181133 1.49630873 3.9720803 3.49604492s-1.0197784 3.87599778-2.9720803 4.37795508v1.126c0 .5522847-.4477153 1-1 1z"/><circle id="Oval" cx="41" cy="16" r="1"/><path id="Shape" d="m25 26h-19c-.55228475 0-1-.4477153-1-1s.44771525-1 1-1h19c.5522847 0 1 .4477153 1 1s-.4477153 1-1 1z"/><path id="Shape" d="m22 22h-16c-.55228475 0-1-.4477153-1-1s.44771525-1 1-1h16c.5522847 0 1 .4477153 1 1s-.4477153 1-1 1z"/><path id="Shape" d="m22 18h-16c-.55228475 0-1-.4477153-1-1s.44771525-1 1-1h16c.5522847 0 1 .4477153 1 1s-.4477153 1-1 1z"/><path id="Shape" d="m22 14h-16c-.55228475 0-1-.4477153-1-1s.44771525-1 1-1h16c.5522847 0 1 .4477153 1 1s-.4477153 1-1 1z"/><path id="Shape" d="m25 30h-19c-.55228475 0-1-.4477153-1-1s.44771525-1 1-1h19c.5522847 0 1 .4477153 1 1s-.4477153 1-1 1z"/><path id="Shape" d="m18 34h-12c-.55228475 0-1-.4477153-1-1s.44771525-1 1-1h12c.5522847 0 1 .4477153 1 1s-.4477153 1-1 1z"/><path id="Shape" d="m42 30h-8c-.5522847 0-1-.4477153-1-1s.4477153-1 1-1h8c.5522847 0 1 .4477153 1 1s-.4477153 1-1 1z"/><path id="Shape" d="m42 26h-4c-.5522847 0-1-.4477153-1-1s.4477153-1 1-1h4c.5522847 0 1 .4477153 1 1s-.4477153 1-1 1z"/></g></g></svg>